<svg viewBox="0 0 24 24" xmlns="http://www.w3.org/2000/svg" xmlns:xlink="http://www.w3.org/1999/xlink" width="24.000000" height="24.000000" fill="none">
	<rect id="calendar" width="24.000000" height="24.000000" x="0.000000" y="0.000000" fill="rgb(255,255,255)" fill-opacity="0" />
	<path id="Vector" d="M19 4C20.1046 4 21 4.89543 21 6L21 20C21 21.1046 20.1046 22 19 22L5 22C3.89543 22 3 21.1046 3 20L3 6C3 4.89543 3.89543 4 5 4L19 4Z" stroke="rgb(255,255,255)" stroke-linecap="round" stroke-linejoin="round" stroke-width="2.000000" />
	<path id="Vector" d="M0 0L4 0" stroke="rgb(255,255,255)" stroke-linecap="round" stroke-linejoin="round" stroke-width="2.000000" transform="matrix(0,1,-1,0,16,2)" />
	<path id="Vector" d="M0 0L4 0" stroke="rgb(255,255,255)" stroke-linecap="round" stroke-linejoin="round" stroke-width="2.000000" transform="matrix(0,1,-1,0,8,2)" />
	<path id="Vector" d="M3 10L21 10" stroke="rgb(255,255,255)" stroke-linecap="round" stroke-linejoin="round" stroke-width="2.000000" />
</svg>
