<svg viewBox="0 0 32 32" xmlns="http://www.w3.org/2000/svg" xmlns:xlink="http://www.w3.org/1999/xlink" width="32.000000" height="32.000000" fill="none">
	<rect id="coffee" width="32.000000" height="32.000000" x="0.000000" y="0.000000" fill="rgb(255,255,255)" fill-opacity="0" />
	<path id="Vector" d="M24 10.6667L25.3333 10.6667C26.7478 10.6667 28.1044 11.2286 29.1046 12.2288C30.1048 13.229 30.6667 14.5855 30.6667 16C30.6667 17.4145 30.1048 18.771 29.1046 19.7712C28.1044 20.7714 26.7478 21.3333 25.3333 21.3333L24 21.3333" fill-rule="nonzero" stroke="rgb(255,255,255)" stroke-linecap="round" stroke-linejoin="round" stroke-width="2.000000" />
	<path id="Vector" d="M2.66667 10.6667L24 10.6667L24 22.6667C24 24.0812 23.4381 25.4377 22.4379 26.4379C21.4377 27.4381 20.0812 28 18.6667 28L8 28C6.58551 28 5.22896 27.4381 4.22877 26.4379C3.22857 25.4377 2.66667 24.0812 2.66667 22.6667L2.66667 10.6667Z" fill="rgb(255,255,255)" fill-rule="nonzero" />
	<path id="Vector" d="M24 10.6667L24 22.6667C24 24.0812 23.4381 25.4377 22.4379 26.4379C21.4377 27.4381 20.0812 28 18.6667 28L8 28C6.58551 28 5.22896 27.4381 4.22877 26.4379C3.22857 25.4377 2.66667 24.0812 2.66667 22.6667L2.66667 10.6667L24 10.6667Z" fill-rule="nonzero" stroke="rgb(255,255,255)" stroke-linecap="round" stroke-linejoin="round" stroke-width="2.000000" />
	<path id="Vector" d="M0 0L4 0" stroke="rgb(255,255,255)" stroke-linecap="round" stroke-linejoin="round" stroke-width="2.000000" transform="matrix(0,1,-1,0,8,1.33333)" />
	<path id="Vector" d="M0 0L4 0" stroke="rgb(121,0,194)" stroke-linecap="round" stroke-linejoin="round" stroke-width="2.000000" transform="matrix(0,1,-1,0,13.3333,1.33333)" />
	<path id="Vector" d="M0 0L4 0" stroke="rgb(255,255,255)" stroke-linecap="round" stroke-linejoin="round" stroke-width="2.000000" transform="matrix(0,1,-1,0,18.6667,1.33333)" />
</svg>
