<svg viewBox="0 0 14.2222 14.2222" xmlns="http://www.w3.org/2000/svg" xmlns:xlink="http://www.w3.org/1999/xlink" width="14.222168" height="14.222229" fill="none">
	<rect id="heart" width="14.222222" height="14.222222" x="0.000000" y="0.000000" fill="rgb(255,255,255)" fill-opacity="0" />
	<path id="Vector" d="M12.3496 2.73186C12.0469 2.42905 11.6876 2.18883 11.292 2.02495C10.8965 1.86106 10.4726 1.7767 10.0444 1.7767C9.61628 1.7767 9.19233 1.86106 8.7968 2.02495C8.40127 2.18883 8.0419 2.42905 7.73923 2.73186L7.11108 3.36001L6.48293 2.73186C5.87156 2.12049 5.04236 1.77702 4.17775 1.77702C3.31314 1.77702 2.48394 2.12049 1.87256 2.73186C1.26119 3.34323 0.917725 4.17243 0.917725 5.03704C0.917725 5.90166 1.26119 6.73086 1.87256 7.34223L2.50071 7.97038L7.11108 12.5807L11.7215 7.97038L12.3496 7.34223C12.6524 7.03956 12.8926 6.68019 13.0565 6.28466C13.2204 5.88913 13.3048 5.46518 13.3048 5.03704C13.3048 4.6089 13.2204 4.18496 13.0565 3.78943C12.8926 3.39389 12.6524 3.03453 12.3496 2.73186Z" fill="rgb(97.4263,0.368276,194.484)" fill-rule="nonzero" />
	<path id="Vector" d="M11.292 2.02495C10.8965 1.86106 10.4726 1.7767 10.0444 1.7767C9.61628 1.7767 9.19233 1.86106 8.7968 2.02495C8.40127 2.18883 8.0419 2.42905 7.73923 2.73186L7.11108 3.36001L6.48293 2.73186C5.87156 2.12049 5.04236 1.77702 4.17775 1.77702C3.31314 1.77702 2.48394 2.12049 1.87256 2.73186C1.26119 3.34323 0.917725 4.17243 0.917725 5.03704C0.917725 5.90166 1.26119 6.73086 1.87256 7.34223L2.50071 7.97038L7.11108 12.5807L11.7215 7.97038L12.3496 7.34223C12.6524 7.03956 12.8926 6.68019 13.0565 6.28466C13.2204 5.88913 13.3048 5.46518 13.3048 5.03704C13.3048 4.6089 13.2204 4.18496 13.0565 3.78943C12.8926 3.39389 12.6524 3.03453 12.3496 2.73186C12.0469 2.42905 11.6876 2.18883 11.292 2.02495Z" fill-rule="nonzero" stroke="rgb(97.4263,0.368276,194.484)" stroke-linecap="round" stroke-linejoin="round" stroke-width="1.185185" />
</svg>
